<svg id="svg" version="1.1" xmlns="http://www.w3.org/2000/svg" xmlns:xlink="http://www.w3.org/1999/xlink" width="400" height="191.4252607184241" viewBox="0, 0, 400,191.4252607184241"><g id="svgg"><path id="path0" d="M44.118 34.247 C 44.523 34.703,44.615 34.745,44.615 34.473 C 44.615 34.371,44.421 34.187,44.184 34.062 C 43.755 33.837,43.755 33.838,44.118 34.247 M45.381 35.519 C 45.738 35.888,46.073 36.190,46.126 36.190 C 46.179 36.190,45.929 35.888,45.572 35.519 C 45.215 35.151,44.879 34.849,44.827 34.849 C 44.774 34.849,45.023 35.151,45.381 35.519 M46.338 36.368 C 46.338 36.475,46.575 36.711,46.865 36.891 C 47.154 37.071,47.585 37.389,47.821 37.598 C 48.058 37.807,48.283 37.942,48.322 37.898 C 48.361 37.853,47.931 37.447,47.366 36.994 C 46.800 36.542,46.338 36.260,46.338 36.368 M49.549 38.531 C 49.715 38.730,49.679 38.844,49.392 39.023 C 49.187 39.152,49.019 39.343,49.019 39.448 C 49.019 39.553,48.763 39.907,48.451 40.234 C 48.138 40.561,47.773 41.077,47.638 41.381 C 47.503 41.685,47.333 41.934,47.259 41.934 C 47.088 41.934,45.877 43.758,45.542 44.519 C 45.403 44.835,45.183 45.205,45.052 45.342 C 44.922 45.478,44.664 46.017,44.479 46.538 C 44.293 47.060,44.083 47.487,44.011 47.487 C 43.939 47.487,43.689 48.068,43.456 48.779 C 43.223 49.490,42.965 50.158,42.883 50.263 C 42.745 50.441,42.352 51.865,41.589 54.955 C 41.148 56.742,41.145 65.785,41.585 67.592 C 42.215 70.177,42.752 72.095,42.873 72.188 C 42.941 72.240,43.151 72.780,43.338 73.387 C 43.525 73.994,43.837 74.640,44.031 74.823 C 44.225 75.006,44.776 75.909,45.257 76.830 C 48.793 83.612,54.677 88.840,62.429 92.089 C 66.740 93.896,73.012 94.674,78.083 94.032 C 79.904 93.801,81.562 93.666,81.769 93.731 C 81.976 93.797,82.145 93.768,82.145 93.668 C 82.145 93.568,82.543 93.426,83.031 93.352 C 83.518 93.279,84.048 93.169,84.208 93.108 C 84.761 92.896,84.305 100.851,83.689 102.154 C 83.590 102.365,83.368 103.054,83.195 103.686 C 82.048 107.893,78.846 112.463,74.247 116.457 C 71.798 118.584,67.470 121.781,67.039 121.781 C 66.948 121.781,66.776 121.898,66.657 122.042 C 66.538 122.185,65.730 122.719,64.862 123.227 C 63.994 123.736,63.241 124.205,63.188 124.270 C 63.135 124.334,62.748 124.563,62.326 124.778 C 61.141 125.383,59.639 126.226,56.199 128.219 C 55.778 128.463,55.045 128.885,54.572 129.157 C 54.098 129.428,53.236 129.943,52.657 130.301 C 52.078 130.659,51.290 131.126,50.906 131.339 C 50.522 131.551,50.089 131.836,49.945 131.971 C 49.800 132.106,49.382 132.382,49.015 132.585 C 48.648 132.788,48.305 133.006,48.253 133.071 C 48.200 133.136,47.597 133.563,46.912 134.021 C 43.503 136.302,37.721 141.927,37.721 142.964 C 37.721 143.098,37.611 143.276,37.476 143.361 C 37.182 143.544,35.706 146.015,35.525 146.625 C 35.455 146.862,35.333 147.056,35.255 147.056 C 35.176 147.056,34.910 147.638,34.664 148.348 C 34.418 149.059,34.138 149.743,34.041 149.867 C 33.820 150.154,32.988 153.300,32.734 154.811 C 32.622 155.482,32.564 158.904,32.594 163.045 L 32.647 170.129 34.945 170.085 C 37.541 170.036,41.406 169.679,41.551 169.475 C 41.604 169.401,42.551 169.185,43.657 168.995 C 44.763 168.804,46.056 168.498,46.529 168.314 C 47.003 168.130,47.843 167.873,48.396 167.743 C 48.949 167.613,49.402 167.447,49.402 167.376 C 49.402 167.304,49.811 167.126,50.311 166.982 C 50.811 166.837,51.824 166.441,52.561 166.101 C 53.298 165.762,54.095 165.425,54.332 165.353 C 54.569 165.280,54.763 165.140,54.763 165.042 C 54.763 164.944,54.838 164.864,54.930 164.864 C 55.208 164.864,56.719 164.113,57.635 163.519 C 58.109 163.212,58.906 162.742,59.406 162.473 C 59.907 162.205,60.316 161.900,60.316 161.797 C 60.316 161.693,60.402 161.608,60.507 161.608 C 61.275 161.608,70.081 153.746,70.081 153.060 C 70.081 152.977,70.255 152.734,70.467 152.520 C 71.053 151.927,72.571 150.003,72.571 149.853 C 72.571 149.780,72.786 149.488,73.049 149.204 C 73.313 148.920,73.528 148.589,73.528 148.470 C 73.528 148.350,73.664 148.139,73.829 148.002 C 73.995 147.864,74.308 147.401,74.525 146.973 C 74.742 146.545,74.978 146.151,75.050 146.099 C 75.224 145.970,77.932 140.476,77.933 140.248 C 77.934 140.148,78.053 139.840,78.197 139.563 C 78.342 139.286,78.654 138.468,78.892 137.744 C 79.129 137.021,79.387 136.343,79.464 136.237 C 79.542 136.132,79.714 135.701,79.846 135.280 C 79.978 134.859,80.277 134.083,80.511 133.557 C 80.744 133.030,81.054 132.190,81.199 131.690 C 81.344 131.190,81.522 130.780,81.594 130.780 C 81.667 130.780,81.880 130.285,82.068 129.679 C 82.256 129.074,82.609 128.178,82.852 127.689 C 83.095 127.200,83.293 126.680,83.293 126.535 C 83.293 126.389,83.410 126.100,83.553 125.892 C 83.696 125.685,84.010 124.911,84.252 124.174 C 84.493 123.437,84.751 122.791,84.825 122.738 C 84.899 122.685,85.156 122.039,85.397 121.302 C 85.637 120.565,85.909 119.866,86.001 119.749 C 86.093 119.633,86.340 119.029,86.551 118.409 C 86.762 117.789,87.062 117.022,87.218 116.707 C 87.568 115.997,88.846 112.654,88.846 112.447 C 88.846 112.365,89.006 111.997,89.201 111.630 C 89.396 111.262,89.666 110.618,89.800 110.196 C 89.934 109.775,90.243 109.000,90.486 108.473 C 90.729 107.946,91.034 107.085,91.163 106.558 C 91.292 106.032,91.477 105.548,91.574 105.484 C 92.742 104.710,92.732 92.740,91.563 91.919 C 91.400 91.805,90.887 90.183,90.987 90.097 C 91.021 90.068,91.342 89.895,91.701 89.712 C 92.059 89.529,92.447 89.304,92.562 89.210 C 93.558 88.404,94.797 87.506,94.913 87.506 C 95.075 87.506,95.312 87.285,97.894 84.735 C 100.092 82.563,100.309 82.143,98.843 82.890 C 92.543 86.103,84.063 86.477,77.264 83.842 C 60.533 77.358,54.528 56.658,65.260 42.461 L 65.948 41.551 71.796 41.555 C 75.013 41.557,78.239 41.645,78.966 41.750 C 80.690 41.999,80.817 41.853,79.139 41.551 C 78.269 41.394,74.973 41.299,69.220 41.265 C 57.835 41.197,54.941 40.815,50.469 38.786 C 49.845 38.502,49.431 38.388,49.549 38.531 M62.760 39.389 C 62.998 39.434,63.342 39.433,63.525 39.385 C 63.709 39.337,63.514 39.299,63.092 39.302 C 62.671 39.304,62.521 39.343,62.760 39.389 M82.606 42.529 C 83.228 42.730,83.771 42.860,83.813 42.819 C 83.920 42.711,82.138 42.122,81.775 42.145 C 81.610 42.155,81.984 42.328,82.606 42.529 M85.557 43.582 C 86.117 43.855,86.622 44.031,86.678 43.974 C 86.788 43.865,85.772 43.398,85.000 43.203 C 84.746 43.139,84.996 43.310,85.557 43.582 M87.315 44.324 C 87.315 44.374,87.668 44.596,88.100 44.816 C 88.533 45.037,88.833 45.130,88.767 45.024 C 88.582 44.726,87.315 44.114,87.315 44.324 M89.416 45.519 C 95.245 49.710,98.516 53.730,100.459 59.087 C 101.198 61.125,101.591 61.713,101.001 59.898 C 99.191 54.329,93.655 47.400,89.421 45.404 L 88.942 45.178 89.416 45.519 M101.298 61.300 C 101.295 61.368,101.465 62.260,101.675 63.284 C 101.886 64.308,102.070 65.373,102.084 65.651 C 102.107 66.087,102.122 66.098,102.192 65.736 C 102.291 65.228,101.741 61.926,101.486 61.488 C 101.386 61.317,101.302 61.233,101.298 61.300 M104.643 64.049 C 104.327 64.190,103.767 64.635,103.399 65.039 L 102.729 65.773 103.399 65.172 C 103.767 64.841,104.414 64.393,104.835 64.175 C 105.683 63.737,105.546 63.648,104.643 64.049 M102.369 66.546 C 102.304 66.718,102.257 67.001,102.266 67.177 C 102.275 67.353,102.359 67.242,102.451 66.932 C 102.632 66.327,102.568 66.028,102.369 66.546 M102.121 69.028 C 102.122 69.765,102.157 70.044,102.198 69.646 C 102.240 69.249,102.239 68.646,102.197 68.306 C 102.154 67.966,102.120 68.291,102.121 69.028 M102.449 71.479 C 102.431 71.832,103.032 72.711,103.718 73.336 L 104.452 74.006 103.756 73.241 C 103.373 72.819,102.924 72.216,102.758 71.900 C 102.592 71.584,102.453 71.395,102.449 71.479 " stroke="none" fill="#cfd883" fill-rule="evenodd"></path><path id="path1" d="M56.103 21.442 C 55.866 21.592,55.816 22.204,55.816 24.981 C 55.816 27.922,55.778 28.339,55.512 28.339 C 54.532 28.339,49.051 27.737,48.731 27.593 C 48.521 27.499,47.530 27.231,46.529 26.999 C 45.529 26.767,44.623 26.506,44.517 26.419 C 44.410 26.332,43.828 26.076,43.224 25.850 C 42.620 25.624,42.125 25.365,42.125 25.274 C 42.125 25.184,41.975 25.060,41.790 24.999 C 41.606 24.938,41.156 24.624,40.790 24.301 C 39.839 23.462,39.835 23.902,40.776 25.758 C 42.634 29.422,49.387 36.573,50.990 36.573 C 51.058 36.573,51.572 36.782,52.132 37.038 C 52.692 37.294,53.577 37.608,54.100 37.736 C 54.623 37.864,55.199 38.044,55.380 38.136 C 56.654 38.784,61.086 39.087,69.166 39.077 C 83.835 39.060,91.078 41.738,97.517 49.563 C 98.706 51.008,98.963 51.356,99.994 52.920 C 101.193 54.738,103.010 58.704,103.295 60.124 C 103.369 60.493,103.590 61.312,103.785 61.944 C 103.981 62.575,104.190 63.327,104.251 63.614 C 104.369 64.173,104.313 64.175,105.792 63.554 C 106.003 63.466,106.434 63.369,106.750 63.338 L 107.324 63.284 107.385 60.986 C 107.446 58.685,107.116 54.560,106.857 54.380 C 106.781 54.327,106.579 53.578,106.409 52.714 C 106.238 51.851,105.930 50.774,105.725 50.321 C 105.520 49.868,105.244 49.131,105.111 48.684 C 104.979 48.236,104.807 47.870,104.731 47.870 C 104.654 47.870,104.447 47.417,104.269 46.865 C 104.092 46.312,103.840 45.773,103.710 45.668 C 103.579 45.562,103.266 45.045,103.014 44.519 C 102.761 43.992,102.401 43.396,102.213 43.193 C 102.025 42.990,101.821 42.667,101.760 42.475 C 101.700 42.283,101.567 42.125,101.465 42.125 C 101.364 42.125,101.226 41.975,101.159 41.790 C 101.092 41.606,100.706 41.056,100.303 40.567 C 99.899 40.078,99.569 39.631,99.569 39.572 C 99.569 39.236,95.318 35.326,94.112 34.552 C 93.796 34.350,93.422 34.073,93.280 33.938 C 93.138 33.802,92.772 33.562,92.466 33.404 C 92.160 33.246,91.910 33.049,91.910 32.968 C 91.910 32.887,91.617 32.714,91.258 32.584 C 90.899 32.454,90.306 32.144,89.938 31.895 C 89.571 31.646,88.960 31.330,88.580 31.193 C 88.200 31.055,87.889 30.874,87.889 30.790 C 87.889 30.706,87.824 30.655,87.745 30.678 C 87.596 30.720,86.363 30.294,84.748 29.640 C 84.183 29.412,83.595 29.303,83.271 29.368 C 82.976 29.427,82.686 29.398,82.628 29.303 C 82.569 29.209,82.048 29.072,81.468 29.000 C 80.804 28.917,80.348 28.753,80.233 28.556 C 80.123 28.368,80.048 28.339,80.044 28.483 C 80.036 28.815,79.306 28.783,78.958 28.435 C 78.628 28.105,78.315 28.059,78.315 28.339 C 78.315 28.444,78.100 28.530,77.836 28.530 C 77.573 28.530,77.358 28.459,77.358 28.371 C 77.358 28.283,77.250 28.204,77.118 28.194 C 76.987 28.185,76.309 28.116,75.613 28.041 C 74.744 27.948,74.306 27.973,74.214 28.122 C 74.060 28.371,72.643 28.419,72.495 28.180 C 72.441 28.092,71.002 28.061,69.298 28.110 C 66.279 28.197,63.712 27.955,63.468 27.561 C 63.411 27.468,62.982 27.223,62.515 27.017 C 60.782 26.250,58.392 24.008,57.036 21.876 C 56.607 21.202,56.535 21.169,56.103 21.442 M42.952 75.872 C 42.445 76.340,41.783 76.931,41.481 77.184 C 41.179 77.438,40.441 78.119,39.840 78.698 C 39.240 79.277,38.247 80.182,37.633 80.708 C 37.020 81.235,36.201 81.967,35.813 82.336 C 34.822 83.280,31.905 85.928,30.541 87.122 C 28.703 88.732,26.490 91.143,25.122 93.028 C 24.943 93.274,24.603 93.671,24.366 93.911 C 24.129 94.151,23.935 94.413,23.935 94.494 C 23.935 94.575,23.633 95.060,23.265 95.574 C 22.896 96.087,22.595 96.553,22.595 96.609 C 22.595 96.666,22.293 97.160,21.924 97.707 C 21.556 98.255,21.254 98.805,21.254 98.931 C 21.254 99.056,21.126 99.287,20.969 99.444 C 20.812 99.601,20.293 100.577,19.816 101.612 C 19.339 102.647,18.857 103.655,18.746 103.850 C 18.490 104.302,17.808 106.427,17.808 106.775 C 17.808 106.919,17.734 107.037,17.644 107.037 C 17.554 107.037,17.281 107.877,17.039 108.904 C 16.796 109.931,16.529 110.862,16.444 110.973 C 16.262 111.213,15.701 114.321,15.701 115.093 C 15.701 115.389,15.619 115.681,15.519 115.743 C 15.419 115.805,15.377 116.166,15.426 116.546 C 15.477 116.947,15.413 117.359,15.273 117.528 C 14.915 117.958,14.931 128.052,15.290 128.273 C 15.448 128.371,15.506 128.651,15.446 129.030 C 15.394 129.361,15.428 129.869,15.522 130.158 C 15.615 130.448,15.822 131.524,15.982 132.550 C 16.141 133.577,16.352 134.568,16.452 134.752 C 16.551 134.937,16.816 135.862,17.041 136.807 C 17.266 137.753,17.517 138.615,17.598 138.722 C 17.680 138.830,17.948 139.564,18.195 140.354 C 18.441 141.144,18.696 141.833,18.762 141.886 C 18.828 141.939,19.000 142.283,19.144 142.652 C 19.486 143.531,20.695 145.976,20.848 146.099 C 20.913 146.151,21.162 146.582,21.399 147.056 C 21.637 147.530,22.050 148.262,22.317 148.684 C 22.584 149.105,22.852 149.600,22.912 149.785 C 22.973 149.969,23.090 150.120,23.172 150.120 C 23.255 150.120,23.501 150.423,23.720 150.793 C 24.150 151.522,24.373 151.819,25.036 152.540 C 25.273 152.798,25.467 153.060,25.467 153.121 C 25.467 153.238,26.076 153.946,28.030 156.103 C 29.083 157.266,29.651 157.657,29.695 157.252 C 29.704 157.173,29.746 156.850,29.790 156.534 C 29.833 156.218,29.961 155.270,30.073 154.428 C 30.287 152.829,30.558 151.632,30.852 150.981 C 30.948 150.771,31.193 150.006,31.399 149.283 C 31.604 148.559,31.888 147.784,32.029 147.560 C 32.171 147.335,32.447 146.723,32.643 146.200 C 32.838 145.676,33.156 145.078,33.349 144.871 C 33.542 144.664,33.700 144.388,33.700 144.257 C 33.700 144.127,33.836 143.884,34.001 143.719 C 34.167 143.553,34.249 143.418,34.183 143.418 C 34.117 143.418,34.284 143.130,34.552 142.778 C 34.821 142.425,35.041 142.038,35.041 141.916 C 35.041 141.794,35.107 141.695,35.187 141.695 C 35.267 141.695,35.546 141.350,35.807 140.929 C 36.067 140.507,36.337 140.163,36.407 140.163 C 36.478 140.163,36.694 139.917,36.889 139.616 C 37.306 138.970,39.193 136.784,39.708 136.349 C 39.905 136.182,40.422 135.730,40.857 135.345 C 42.656 133.747,42.993 133.467,43.122 133.464 C 43.196 133.462,43.469 133.267,43.727 133.030 C 44.385 132.428,44.871 132.078,46.625 130.941 C 47.468 130.395,48.200 129.899,48.253 129.838 C 48.305 129.777,48.650 129.561,49.019 129.359 C 49.387 129.156,49.732 128.931,49.785 128.858 C 49.837 128.785,50.268 128.530,50.742 128.291 C 51.216 128.052,51.647 127.794,51.699 127.717 C 51.752 127.640,52.140 127.391,52.561 127.164 C 52.982 126.937,53.844 126.452,54.476 126.085 C 55.108 125.718,56.099 125.154,56.678 124.832 C 57.257 124.509,58.076 124.039,58.497 123.786 C 58.918 123.533,59.694 123.097,60.220 122.816 C 60.747 122.535,61.221 122.246,61.273 122.173 C 61.326 122.101,61.800 121.836,62.326 121.585 C 62.853 121.334,63.370 121.059,63.475 120.973 C 64.103 120.466,66.001 119.292,66.194 119.292 C 66.321 119.292,66.493 119.179,66.577 119.042 C 66.662 118.904,67.054 118.596,67.449 118.356 C 67.843 118.116,68.167 117.841,68.167 117.744 C 68.167 117.647,68.261 117.568,68.376 117.568 C 68.607 117.568,70.141 116.453,71.142 115.558 C 71.496 115.242,72.150 114.682,72.596 114.313 C 74.008 113.146,76.561 110.523,76.875 109.917 C 77.040 109.597,77.247 109.335,77.333 109.335 C 77.420 109.335,77.646 108.990,77.836 108.569 C 78.026 108.147,78.248 107.803,78.328 107.803 C 78.409 107.803,78.623 107.415,78.804 106.941 C 78.985 106.467,79.194 106.079,79.268 106.079 C 79.343 106.079,79.611 105.455,79.865 104.691 C 80.118 103.928,80.379 103.260,80.443 103.207 C 80.658 103.033,81.176 100.645,81.306 99.234 C 81.376 98.471,81.508 97.846,81.598 97.846 C 81.689 97.846,81.747 96.941,81.727 95.835 C 81.683 93.448,81.418 93.154,81.339 95.404 L 81.283 96.984 80.230 97.149 C 78.246 97.460,70.546 97.375,68.645 97.022 C 64.316 96.216,61.160 95.091,56.773 92.791 C 53.684 91.170,48.621 86.867,46.529 84.084 C 46.266 83.734,45.874 83.219,45.657 82.940 C 44.780 81.808,43.549 79.864,42.880 78.557 L 42.171 77.171 42.806 76.498 C 43.155 76.128,43.523 75.826,43.624 75.826 C 43.828 75.826,44.100 75.247,43.962 75.109 C 43.913 75.061,43.459 75.404,42.952 75.872 " stroke="none" fill="#3bc3cb" fill-rule="evenodd"></path><path id="path2" d="M65.268 42.446 C 54.536 56.700,60.521 77.353,77.264 83.842 C 84.070 86.480,92.542 86.103,98.858 82.883 C 99.256 82.679,99.666 82.564,99.767 82.627 C 99.869 82.690,99.952 82.668,99.952 82.579 C 99.952 82.489,100.340 81.989,100.813 81.466 C 101.286 80.944,101.674 80.464,101.675 80.400 C 101.675 80.335,101.932 79.960,102.245 79.566 C 102.558 79.172,102.962 78.514,103.143 78.104 C 103.324 77.693,103.534 77.358,103.609 77.358 C 103.684 77.358,103.942 76.884,104.182 76.304 C 104.422 75.725,104.688 75.251,104.774 75.251 C 105.289 75.251,104.831 74.304,103.948 73.544 C 102.410 72.219,102.173 71.506,102.134 68.071 C 102.003 56.512,94.491 46.424,83.293 42.772 C 80.129 41.740,79.768 41.700,72.666 41.608 L 65.965 41.521 65.268 42.446 M88.069 54.891 C 92.287 56.253,92.328 62.384,88.129 63.955 C 86.274 64.649,84.535 64.246,83.065 62.783 C 79.458 59.190,83.184 53.313,88.069 54.891 " stroke="none" fill="#fbfbfb" fill-rule="evenodd"></path><path id="path3" d="M40.081 25.945 C 40.102 26.363,40.212 26.614,40.375 26.615 C 40.539 26.615,40.589 26.734,40.512 26.935 C 40.444 27.111,40.500 27.327,40.635 27.414 C 40.830 27.540,40.822 27.612,40.594 27.762 C 40.335 27.931,40.454 28.039,40.833 27.979 C 40.912 27.966,40.977 28.067,40.977 28.203 C 40.977 28.338,41.138 28.766,41.335 29.152 C 41.579 29.630,41.625 29.884,41.479 29.944 C 41.360 29.992,41.425 30.039,41.621 30.047 C 41.882 30.058,41.951 30.166,41.878 30.445 C 41.823 30.656,41.846 30.787,41.930 30.735 C 42.013 30.684,42.188 30.899,42.318 31.214 C 42.448 31.528,42.617 31.786,42.692 31.786 C 42.917 31.786,43.290 32.754,43.151 32.978 C 43.075 33.102,43.113 33.130,43.246 33.048 C 43.375 32.968,43.524 33.057,43.601 33.257 C 43.673 33.448,43.931 33.762,44.174 33.954 C 44.416 34.146,44.615 34.383,44.615 34.481 C 44.615 34.667,45.603 35.605,46.852 36.605 C 47.254 36.927,47.561 37.266,47.535 37.360 C 47.508 37.453,47.595 37.508,47.726 37.482 C 47.858 37.456,47.942 37.548,47.913 37.688 C 47.884 37.827,47.937 37.894,48.031 37.836 C 48.125 37.778,48.533 37.891,48.936 38.087 C 49.402 38.314,49.569 38.477,49.393 38.534 C 49.240 38.583,49.289 38.596,49.503 38.562 C 49.717 38.529,50.334 38.706,50.874 38.956 C 54.826 40.787,58.216 41.210,69.411 41.271 C 80.409 41.331,84.327 42.084,88.846 45.006 C 91.574 46.769,92.486 47.488,94.314 49.313 C 98.949 53.941,102.194 60.745,102.256 65.965 L 102.265 66.730 102.567 66.156 C 102.733 65.840,103.154 65.280,103.504 64.911 L 104.140 64.241 103.676 62.326 C 101.142 51.849,93.494 43.547,83.752 40.698 C 79.753 39.529,80.540 39.600,69.794 39.437 L 59.837 39.285 57.061 38.705 C 51.155 37.469,48.533 35.881,44.120 30.864 C 42.695 29.245,40.755 26.468,40.511 25.699 C 40.304 25.047,40.042 25.196,40.081 25.945 M84.903 54.970 C 83.887 55.264,82.596 56.569,82.156 57.744 C 80.028 63.432,88.241 66.806,90.746 61.273 C 92.392 57.637,88.856 53.822,84.903 54.970 M134.502 84.785 C 133.452 85.371,133.116 85.689,132.833 86.363 C 132.325 87.572,132.197 88.171,132.344 88.655 C 132.424 88.918,132.536 89.363,132.592 89.644 C 133.190 92.627,138.645 92.692,139.590 89.728 C 140.686 86.293,137.445 83.144,134.502 84.785 M283.102 84.910 C 281.250 85.977,280.631 89.537,282.090 90.730 C 282.304 90.905,282.645 91.221,282.849 91.431 C 283.334 91.933,286.712 92.009,287.095 91.527 C 287.221 91.369,287.494 91.146,287.702 91.031 C 287.910 90.915,288.210 90.442,288.368 89.977 C 288.526 89.513,288.719 89.105,288.798 89.070 C 289.016 88.973,288.971 87.315,288.751 87.315 C 288.645 87.315,288.559 87.185,288.559 87.027 C 288.559 85.045,285.158 83.726,283.102 84.910 M360.220 95.485 C 359.457 95.529,358.832 95.635,358.832 95.721 C 358.832 95.807,358.416 95.927,357.908 95.987 C 356.546 96.148,354.236 96.735,354.236 96.920 C 354.236 97.008,354.110 97.080,353.956 97.080 C 353.668 97.080,352.303 97.663,352.130 97.859 C 352.078 97.919,351.610 98.171,351.092 98.419 C 350.119 98.884,349.816 99.101,348.884 100.000 C 348.584 100.290,348.259 100.527,348.162 100.527 C 348.065 100.527,347.690 100.889,347.329 101.331 C 346.968 101.773,346.487 102.330,346.259 102.567 C 346.031 102.805,345.644 103.366,345.397 103.813 C 345.151 104.261,344.820 104.761,344.660 104.924 C 344.501 105.088,344.246 105.609,344.094 106.082 C 343.942 106.554,343.747 106.991,343.661 107.051 C 343.575 107.112,343.361 107.672,343.186 108.296 C 343.012 108.920,342.808 109.473,342.734 109.526 C 341.652 110.292,341.652 124.166,342.733 125.502 C 342.824 125.614,343.052 126.266,343.240 126.951 C 343.428 127.635,343.636 128.238,343.703 128.291 C 343.770 128.344,344.023 128.882,344.266 129.488 C 344.508 130.093,344.762 130.590,344.828 130.591 C 344.895 130.592,345.122 130.983,345.332 131.461 C 345.542 131.939,345.908 132.457,346.145 132.612 C 346.383 132.768,346.577 132.990,346.577 133.105 C 346.577 133.337,348.984 135.759,349.214 135.759 C 349.293 135.759,349.580 135.965,349.851 136.217 C 350.123 136.468,350.639 136.823,350.998 137.006 C 351.358 137.188,351.781 137.446,351.939 137.580 C 352.097 137.714,352.721 137.978,353.327 138.167 C 353.933 138.355,354.428 138.573,354.428 138.650 C 354.428 138.818,357.618 139.588,358.313 139.588 C 358.581 139.588,358.836 139.696,358.880 139.828 C 358.987 140.148,367.392 140.176,367.599 139.857 C 367.674 139.741,368.124 139.590,368.597 139.522 C 369.958 139.326,372.044 138.764,372.044 138.594 C 372.044 138.509,372.166 138.439,372.315 138.439 C 372.639 138.439,374.387 137.708,374.529 137.513 C 374.584 137.437,374.995 137.214,375.443 137.017 C 375.890 136.819,376.257 136.583,376.257 136.491 C 376.257 136.399,376.467 136.244,376.725 136.146 C 376.983 136.047,377.338 135.748,377.513 135.480 C 377.689 135.212,377.941 134.993,378.074 134.993 C 378.207 134.993,378.649 134.596,379.057 134.110 C 379.465 133.625,379.993 133.050,380.230 132.831 C 380.467 132.613,380.661 132.342,380.661 132.230 C 380.661 132.117,380.873 131.779,381.132 131.478 C 381.390 131.177,381.747 130.552,381.923 130.090 C 382.100 129.627,382.304 129.248,382.378 129.248 C 382.451 129.248,382.716 128.624,382.967 127.860 C 383.218 127.097,383.486 126.427,383.563 126.372 C 383.639 126.317,383.845 125.498,384.019 124.553 C 384.193 123.607,384.435 122.627,384.557 122.374 C 384.863 121.736,384.861 113.395,384.555 112.762 C 384.432 112.509,384.187 111.527,384.009 110.579 C 383.831 109.631,383.625 108.813,383.550 108.760 C 383.475 108.708,383.214 108.061,382.969 107.324 C 382.725 106.587,382.471 105.941,382.406 105.888 C 382.341 105.835,382.082 105.371,381.830 104.856 C 381.579 104.341,381.234 103.760,381.065 103.566 C 380.895 103.371,380.570 102.974,380.343 102.683 C 379.476 101.574,378.307 100.335,378.127 100.335 C 378.024 100.335,377.770 100.120,377.563 99.856 C 377.356 99.593,377.060 99.378,376.907 99.378 C 376.753 99.378,376.583 99.261,376.528 99.119 C 376.473 98.976,375.981 98.653,375.433 98.401 C 374.886 98.148,374.411 97.882,374.377 97.809 C 374.344 97.737,373.871 97.529,373.324 97.349 C 372.778 97.169,372.159 96.913,371.948 96.781 C 371.542 96.526,368.857 95.931,368.114 95.931 C 367.871 95.931,367.642 95.841,367.606 95.732 C 367.533 95.515,362.579 95.349,360.220 95.485 M133.078 115.462 C 133.078 126.099,133.148 134.801,133.233 134.801 C 133.319 134.801,133.495 135.217,133.625 135.725 C 133.874 136.695,135.197 138.439,135.684 138.439 C 135.831 138.439,135.950 138.518,135.950 138.613 C 135.950 138.886,137.657 139.397,138.569 139.397 L 139.397 139.397 139.392 120.201 C 139.388 102.391,139.323 99.719,138.884 99.398 C 138.797 99.334,138.600 99.038,138.446 98.739 C 138.205 98.271,137.797 97.866,136.558 96.861 C 136.210 96.578,134.460 96.128,133.700 96.125 L 133.078 96.123 133.078 115.462 M149.737 117.728 L 149.737 139.334 159.534 139.461 C 164.922 139.531,171.255 139.588,173.607 139.588 L 177.884 139.588 177.884 137.003 L 177.884 134.418 166.970 134.418 L 156.056 134.418 156.056 115.270 L 156.056 96.123 152.896 96.123 L 149.737 96.123 149.737 117.728 M184.398 111.489 C 184.402 129.507,184.295 128.305,186.231 132.184 C 186.643 133.008,187.130 133.765,187.315 133.866 C 187.499 133.967,187.650 134.146,187.650 134.264 C 187.650 134.533,189.400 136.333,189.662 136.333 C 189.768 136.333,189.963 136.506,190.094 136.716 C 190.226 136.927,190.449 137.099,190.589 137.099 C 190.730 137.099,191.001 137.271,191.192 137.482 C 191.383 137.693,191.615 137.865,191.708 137.865 C 191.802 137.865,192.453 138.134,193.155 138.462 C 193.857 138.790,195.124 139.198,195.971 139.369 C 196.818 139.540,197.572 139.767,197.647 139.873 C 197.862 140.177,206.456 140.133,206.558 139.828 C 206.602 139.696,206.825 139.587,207.053 139.585 C 207.614 139.581,210.202 138.900,210.491 138.681 C 210.619 138.584,211.123 138.358,211.612 138.177 C 212.101 137.997,212.747 137.637,213.048 137.379 C 213.349 137.120,213.700 136.908,213.828 136.908 C 213.956 136.908,214.152 136.735,214.265 136.525 C 214.378 136.314,214.579 136.142,214.712 136.142 C 214.845 136.142,215.294 135.747,215.710 135.266 C 216.127 134.784,216.695 134.134,216.974 133.822 C 217.252 133.510,217.593 132.978,217.731 132.640 C 217.870 132.302,218.087 131.918,218.214 131.788 C 218.341 131.658,218.593 131.098,218.774 130.543 C 218.955 129.989,219.170 129.449,219.253 129.344 C 219.910 128.503,220.010 126.102,220.010 111.037 L 220.010 96.123 216.938 96.123 L 213.867 96.123 213.892 111.084 C 213.905 119.313,213.844 126.098,213.756 126.163 C 213.667 126.228,213.441 126.884,213.253 127.621 C 213.065 128.358,212.826 128.991,212.722 129.027 C 212.618 129.063,212.416 129.370,212.275 129.709 C 211.849 130.728,209.210 133.262,208.138 133.681 C 207.875 133.784,207.315 134.032,206.893 134.233 C 204.797 135.233,199.554 135.240,197.354 134.246 C 196.914 134.047,196.241 133.754,195.860 133.597 C 194.670 133.104,192.887 131.409,192.246 130.162 C 192.015 129.712,191.707 129.129,191.562 128.865 C 191.416 128.602,191.192 127.913,191.065 127.334 C 190.937 126.754,190.758 126.229,190.667 126.167 C 190.575 126.104,190.508 119.336,190.516 111.088 L 190.531 96.123 187.463 96.123 L 184.394 96.123 184.398 111.489 M229.584 117.852 L 229.584 139.588 232.360 139.588 L 235.136 139.588 235.143 121.733 L 235.149 103.877 235.521 104.931 C 235.725 105.510,236.077 106.630,236.301 107.420 C 236.526 108.210,236.775 108.942,236.855 109.047 C 236.936 109.153,237.198 109.885,237.438 110.675 C 237.679 111.465,237.981 112.283,238.110 112.494 C 238.238 112.705,238.500 113.416,238.691 114.074 C 238.882 114.732,239.095 115.270,239.163 115.270 C 239.232 115.270,239.445 115.787,239.636 116.419 C 239.828 117.051,240.042 117.568,240.113 117.568 C 240.184 117.568,240.252 117.676,240.264 117.808 C 240.296 118.181,241.116 120.525,241.252 120.632 C 241.318 120.685,241.582 121.374,241.838 122.164 C 242.094 122.954,242.358 123.643,242.425 123.696 C 242.492 123.748,242.744 124.394,242.984 125.132 C 243.224 125.869,243.484 126.558,243.562 126.663 C 243.639 126.769,243.853 127.329,244.037 127.908 C 244.220 128.487,244.475 129.134,244.601 129.344 C 244.728 129.555,244.985 130.223,245.172 130.828 C 245.359 131.434,245.590 131.929,245.686 131.929 C 245.781 131.929,245.859 132.047,245.859 132.191 C 245.859 132.581,246.611 134.864,246.780 134.984 C 246.860 135.042,247.131 135.756,247.383 136.573 C 247.635 137.389,247.903 138.056,247.978 138.056 C 248.053 138.056,248.171 138.358,248.240 138.727 L 248.366 139.397 250.735 139.397 L 253.105 139.397 253.231 138.822 C 253.301 138.506,253.427 138.248,253.512 138.248 C 253.598 138.248,253.819 137.688,254.004 137.003 C 254.190 136.319,254.399 135.759,254.469 135.759 C 254.540 135.759,254.800 135.091,255.048 134.275 C 255.296 133.459,255.552 132.748,255.616 132.695 C 255.681 132.642,255.943 131.953,256.199 131.163 C 256.455 130.373,256.723 129.684,256.793 129.631 C 256.864 129.579,257.106 128.939,257.330 128.210 C 257.555 127.481,257.811 126.792,257.900 126.678 C 257.989 126.565,258.219 125.955,258.411 125.323 C 258.603 124.691,258.827 124.128,258.910 124.071 C 258.992 124.014,259.243 123.368,259.468 122.635 C 259.693 121.902,259.945 121.216,260.029 121.111 C 260.112 121.005,260.364 120.319,260.589 119.586 C 260.814 118.853,261.066 118.207,261.148 118.150 C 261.229 118.093,261.497 117.401,261.742 116.611 C 261.987 115.821,262.244 115.132,262.314 115.079 C 262.384 115.026,262.553 114.596,262.690 114.122 C 262.827 113.648,263.130 112.829,263.363 112.303 C 263.596 111.776,263.907 110.957,264.054 110.483 C 264.201 110.010,264.373 109.579,264.437 109.526 C 264.501 109.473,264.758 108.698,265.007 107.803 C 265.257 106.908,265.516 106.132,265.584 106.079 C 265.652 106.027,265.798 105.596,265.909 105.122 C 266.055 104.496,266.116 109.069,266.133 121.829 L 266.156 139.397 268.933 139.397 L 271.709 139.397 271.709 117.756 L 271.709 96.115 267.748 96.167 L 263.787 96.218 263.613 96.888 C 263.518 97.257,263.375 97.601,263.295 97.654 C 263.216 97.707,262.972 98.267,262.754 98.899 C 262.535 99.531,262.118 100.737,261.827 101.580 C 261.535 102.422,261.237 103.155,261.163 103.207 C 261.089 103.260,260.837 103.949,260.603 104.739 C 260.369 105.529,260.117 106.218,260.044 106.271 C 259.970 106.324,259.709 107.013,259.464 107.803 C 259.219 108.593,258.962 109.282,258.893 109.335 C 258.824 109.387,258.529 110.120,258.238 110.962 C 257.078 114.318,256.902 114.795,256.789 114.888 C 256.725 114.940,256.468 115.629,256.220 116.419 C 255.971 117.209,255.705 117.899,255.630 117.951 C 255.472 118.061,254.667 120.569,254.667 120.951 C 254.667 121.092,254.587 121.206,254.489 121.206 C 254.392 121.206,254.168 121.702,253.993 122.307 C 253.817 122.913,253.596 123.502,253.502 123.617 C 253.303 123.860,252.561 126.117,252.561 126.481 C 252.561 126.616,252.482 126.756,252.386 126.791 C 252.289 126.826,252.011 127.630,251.768 128.578 C 251.524 129.526,251.272 130.345,251.207 130.397 C 251.141 130.450,251.020 130.752,250.938 131.067 C 250.798 131.602,250.768 131.556,250.503 130.397 C 250.346 129.713,250.161 129.110,250.092 129.057 C 250.023 129.004,249.803 128.293,249.604 127.477 C 249.405 126.661,249.189 125.993,249.125 125.993 C 249.060 125.993,248.802 125.304,248.552 124.461 C 248.301 123.619,248.036 122.930,247.963 122.930 C 247.890 122.930,247.638 122.283,247.404 121.494 C 247.169 120.704,246.908 120.057,246.824 120.057 C 246.739 120.057,246.624 119.864,246.568 119.627 C 246.268 118.366,245.858 117.110,245.713 117.011 C 245.622 116.949,245.389 116.381,245.195 115.749 C 245.000 115.117,244.736 114.428,244.608 114.217 C 244.480 114.007,244.219 113.296,244.028 112.638 C 243.837 111.979,243.626 111.441,243.559 111.441 C 243.492 111.441,243.230 110.773,242.977 109.957 C 242.724 109.141,242.418 108.369,242.296 108.243 C 242.175 108.117,242.015 107.686,241.941 107.286 C 241.867 106.886,241.614 106.170,241.379 105.697 C 241.144 105.223,240.838 104.426,240.700 103.925 C 240.561 103.425,240.385 103.016,240.308 103.016 C 240.231 103.016,239.972 102.326,239.732 101.484 C 239.492 100.641,239.234 99.952,239.159 99.952 C 239.083 99.952,238.830 99.306,238.595 98.516 C 238.361 97.726,238.096 97.080,238.006 97.080 C 237.917 97.080,237.816 96.886,237.783 96.649 C 237.722 96.220,237.709 96.218,233.652 96.167 L 229.584 96.115 229.584 117.852 M282.240 115.331 C 282.240 135.485,282.265 136.133,283.071 136.812 C 283.196 136.917,283.445 137.232,283.623 137.511 C 284.146 138.329,285.910 139.227,287.227 139.347 L 288.368 139.450 288.363 120.228 C 288.361 109.655,288.283 100.679,288.190 100.279 C 287.678 98.074,285.163 96.149,282.767 96.127 L 282.240 96.123 282.240 115.331 M298.899 117.760 L 298.899 139.397 301.675 139.397 L 304.452 139.397 304.453 121.733 C 304.454 105.593,304.480 104.118,304.754 104.643 C 304.918 104.959,305.176 105.287,305.327 105.371 C 305.478 105.455,305.601 105.636,305.601 105.773 C 305.601 105.910,305.859 106.379,306.175 106.815 C 306.491 107.251,306.750 107.657,306.750 107.716 C 306.750 107.775,307.094 108.331,307.516 108.952 C 307.937 109.572,308.281 110.131,308.281 110.194 C 308.281 110.257,308.369 110.412,308.477 110.539 C 308.827 110.954,310.196 113.173,310.196 113.326 C 310.196 113.408,310.347 113.642,310.531 113.846 C 310.716 114.050,311.037 114.540,311.245 114.935 C 311.453 115.330,311.677 115.653,311.743 115.653 C 311.808 115.653,312.019 116.002,312.211 116.428 C 312.403 116.855,312.659 117.264,312.780 117.338 C 312.901 117.412,313.195 117.882,313.434 118.382 C 313.673 118.882,313.937 119.292,314.020 119.292 C 314.103 119.292,314.276 119.544,314.403 119.853 C 314.531 120.162,314.849 120.700,315.110 121.050 C 315.371 121.399,315.703 121.965,315.848 122.307 C 315.994 122.650,316.203 122.930,316.314 122.930 C 316.425 122.930,316.515 123.023,316.515 123.137 C 316.515 123.250,316.817 123.810,317.185 124.381 C 318.692 126.715,319.139 127.446,319.254 127.764 C 319.321 127.949,319.458 128.100,319.560 128.100 C 319.661 128.100,319.805 128.291,319.880 128.526 C 319.954 128.760,320.300 129.366,320.647 129.871 C 320.995 130.377,321.333 130.960,321.399 131.168 C 321.465 131.376,321.592 131.546,321.681 131.546 C 321.770 131.546,322.037 131.949,322.275 132.441 C 322.514 132.933,322.866 133.493,323.058 133.686 C 323.251 133.878,323.408 134.148,323.408 134.287 C 323.408 134.425,323.580 134.721,323.789 134.946 C 323.998 135.171,324.348 135.698,324.567 136.118 C 324.786 136.538,325.089 136.984,325.240 137.109 C 325.391 137.235,325.515 137.440,325.515 137.565 C 325.515 137.690,325.665 137.965,325.850 138.174 C 326.034 138.384,326.280 138.724,326.397 138.929 C 326.594 139.275,326.874 139.305,330.370 139.353 L 334.131 139.405 334.131 117.764 L 334.131 96.123 331.346 96.123 L 328.560 96.123 328.617 113.906 C 328.676 132.268,328.668 132.451,327.928 130.772 C 327.743 130.355,327.480 129.901,327.342 129.763 C 327.204 129.625,326.907 129.151,326.682 128.710 C 326.457 128.269,326.208 127.908,326.128 127.908 C 326.048 127.908,325.813 127.521,325.605 127.048 C 325.397 126.575,325.165 126.188,325.088 126.187 C 325.011 126.186,324.762 125.819,324.535 125.371 C 324.308 124.923,324.058 124.514,323.978 124.461 C 323.898 124.409,323.643 124.000,323.410 123.552 C 323.177 123.104,322.915 122.738,322.827 122.738 C 322.740 122.738,322.609 122.544,322.537 122.307 C 322.465 122.070,322.214 121.618,321.978 121.302 C 321.743 120.986,321.397 120.426,321.209 120.057 C 321.021 119.689,320.750 119.318,320.606 119.234 C 320.462 119.150,320.345 118.992,320.345 118.884 C 320.345 118.775,320.050 118.241,319.690 117.696 C 319.330 117.152,318.929 116.470,318.798 116.180 C 318.667 115.890,318.503 115.653,318.433 115.653 C 318.363 115.653,318.113 115.266,317.876 114.792 C 317.639 114.318,317.374 113.930,317.286 113.930 C 317.199 113.930,317.043 113.688,316.939 113.392 C 316.836 113.096,316.622 112.724,316.464 112.566 C 316.306 112.408,315.983 111.896,315.746 111.429 C 315.510 110.962,315.198 110.510,315.054 110.426 C 314.910 110.342,314.792 110.184,314.792 110.076 C 314.792 109.967,314.490 109.411,314.122 108.840 C 313.753 108.270,313.150 107.336,312.781 106.765 C 312.413 106.194,312.111 105.634,312.111 105.520 C 312.111 105.407,312.025 105.314,311.921 105.314 C 311.816 105.314,311.548 104.926,311.325 104.452 C 311.102 103.978,310.858 103.590,310.782 103.590 C 310.707 103.590,310.443 103.159,310.196 102.633 C 309.950 102.106,309.674 101.675,309.584 101.675 C 309.494 101.675,309.343 101.482,309.249 101.245 C 309.084 100.833,307.900 98.917,307.562 98.516 C 307.473 98.411,307.190 97.937,306.932 97.463 C 306.197 96.114,306.271 96.135,302.393 96.129 L 298.899 96.123 298.899 117.760 M366.858 100.935 C 367.552 101.055,368.162 101.215,368.214 101.290 C 368.267 101.366,368.780 101.582,369.354 101.771 C 369.927 101.960,370.568 102.274,370.778 102.469 C 370.987 102.665,371.261 102.824,371.385 102.824 C 371.964 102.824,374.633 105.283,375.204 106.343 C 375.410 106.725,375.628 107.037,375.690 107.037 C 375.752 107.037,376.008 107.532,376.258 108.138 C 376.508 108.743,376.808 109.336,376.925 109.454 C 377.042 109.572,377.303 110.347,377.506 111.177 C 377.709 112.007,377.963 112.747,378.071 112.822 C 378.336 113.007,378.340 122.509,378.074 122.697 C 377.968 122.772,377.722 123.469,377.526 124.244 C 377.215 125.479,376.041 128.214,375.706 128.483 C 375.640 128.535,375.431 128.857,375.242 129.199 C 374.757 130.071,372.598 132.164,371.723 132.609 C 371.320 132.814,370.930 133.075,370.856 133.189 C 370.782 133.302,370.201 133.553,369.564 133.745 C 368.927 133.938,368.406 134.161,368.406 134.240 C 368.406 135.009,358.989 135.030,358.460 134.263 C 358.401 134.177,357.855 133.953,357.246 133.764 C 356.637 133.576,356.030 133.312,355.897 133.179 C 355.763 133.045,355.375 132.792,355.033 132.615 C 353.947 132.053,351.490 129.440,350.879 128.195 C 350.672 127.774,350.450 127.386,350.386 127.334 C 350.200 127.181,349.449 125.396,349.449 125.107 C 349.449 124.963,349.377 124.844,349.289 124.844 C 349.103 124.844,348.492 122.439,348.492 121.705 C 348.492 121.431,348.406 121.206,348.301 121.206 C 348.072 121.206,348.030 113.996,348.258 113.898 C 348.340 113.863,348.553 113.065,348.732 112.125 C 348.911 111.185,349.135 110.367,349.231 110.306 C 349.326 110.246,349.550 109.765,349.728 109.239 C 349.906 108.712,350.165 108.152,350.303 107.994 C 350.441 107.836,350.738 107.341,350.963 106.893 C 351.188 106.446,351.456 106.079,351.560 106.079 C 351.663 106.079,351.747 105.972,351.748 105.840 C 351.748 105.545,353.520 103.782,353.816 103.782 C 353.935 103.782,354.124 103.609,354.236 103.399 C 354.349 103.188,354.539 103.016,354.657 103.016 C 354.776 103.016,355.268 102.771,355.752 102.472 C 356.235 102.173,357.018 101.810,357.492 101.666 C 357.966 101.522,358.396 101.346,358.449 101.274 C 358.809 100.784,364.622 100.550,366.858 100.935 " stroke="none" fill="#64646c" fill-rule="evenodd"></path><path id="path4" d="M43.948 75.433 C 43.879 75.649,43.737 75.826,43.631 75.826 C 43.526 75.826,43.155 76.128,42.806 76.498 L 42.171 77.171 42.880 78.557 C 43.549 79.864,44.780 81.808,45.657 82.940 C 45.874 83.219,46.266 83.734,46.529 84.084 C 48.621 86.867,53.684 91.170,56.773 92.791 C 61.160 95.091,64.316 96.216,68.645 97.022 C 70.546 97.375,78.246 97.460,80.230 97.149 L 81.283 96.984 81.379 95.308 C 81.446 94.126,81.410 93.633,81.256 93.633 C 81.136 93.633,80.318 93.781,79.437 93.962 C 74.739 94.928,66.899 94.025,62.039 91.960 C 54.324 88.680,47.206 82.114,44.817 76.071 C 44.473 75.200,44.107 74.932,43.948 75.433 " stroke="none" fill="#44af9a" fill-rule="evenodd"></path><path id="path5" d="M107.420 63.358 C 107.420 63.451,107.013 63.589,106.515 63.663 C 103.187 64.162,101.420 67.374,102.444 71.061 C 102.906 72.723,104.977 74.677,106.278 74.677 C 106.695 74.677,107.037 74.763,107.037 74.868 C 107.037 75.106,107.695 75.118,108.140 74.889 C 108.323 74.794,109.119 74.619,109.909 74.498 C 111.294 74.287,113.579 73.342,114.499 72.599 C 114.714 72.425,115.333 71.982,115.875 71.613 C 116.417 71.245,117.051 70.749,117.284 70.512 C 117.517 70.275,117.784 70.079,117.877 70.075 C 118.175 70.064,118.909 69.359,118.900 69.093 C 118.891 68.826,116.228 66.641,115.620 66.402 C 115.428 66.326,115.270 66.197,115.270 66.114 C 115.270 66.031,114.861 65.750,114.361 65.488 C 113.861 65.227,113.341 64.907,113.206 64.779 C 113.072 64.650,112.468 64.392,111.866 64.207 C 111.264 64.021,110.727 63.809,110.674 63.737 C 110.621 63.664,109.904 63.511,109.080 63.396 C 107.285 63.147,107.420 63.150,107.420 63.358 " stroke="none" fill="#fccc04" fill-rule="evenodd"></path><path id="path6" d="M39.253 23.749 C 39.253 23.858,39.382 23.997,39.540 24.057 C 39.698 24.118,39.828 24.249,39.828 24.350 C 39.828 24.450,39.742 24.479,39.638 24.415 C 39.530 24.348,39.498 24.424,39.563 24.594 C 39.625 24.757,39.742 24.849,39.823 24.799 C 39.904 24.749,40.234 25.202,40.557 25.806 C 40.881 26.409,41.280 27.075,41.446 27.286 C 41.612 27.496,41.358 26.913,40.883 25.989 C 40.408 25.065,40.019 24.138,40.019 23.930 C 40.019 23.680,39.890 23.552,39.636 23.552 C 39.426 23.552,39.253 23.641,39.253 23.749 M42.148 28.387 C 42.992 29.602,44.985 31.899,46.261 33.126 C 47.285 34.110,47.185 33.970,45.782 32.456 C 44.806 31.403,43.537 29.916,42.960 29.153 C 41.908 27.758,41.341 27.224,42.148 28.387 M72.475 28.147 C 72.540 28.253,72.928 28.339,73.337 28.339 C 73.745 28.339,74.133 28.253,74.198 28.147 C 74.271 28.029,73.941 27.956,73.337 27.956 C 72.732 27.956,72.402 28.029,72.475 28.147 M77.358 28.339 C 77.358 28.444,77.573 28.530,77.836 28.530 C 78.100 28.530,78.315 28.444,78.315 28.339 C 78.315 28.234,78.100 28.147,77.836 28.147 C 77.573 28.147,77.358 28.234,77.358 28.339 M79.081 28.530 C 79.081 28.636,79.296 28.722,79.560 28.722 C 79.823 28.722,80.038 28.636,80.038 28.530 C 80.038 28.425,79.823 28.339,79.560 28.339 C 79.296 28.339,79.081 28.425,79.081 28.530 M82.681 29.335 C 82.859 29.513,82.962 29.513,83.140 29.335 C 83.319 29.156,83.268 29.105,82.910 29.105 C 82.553 29.105,82.502 29.156,82.681 29.335 M47.681 34.406 C 47.691 34.871,52.130 37.546,52.417 37.259 C 52.499 37.177,51.223 36.573,50.968 36.573 C 50.810 36.573,49.441 35.644,48.492 34.893 C 48.045 34.539,47.680 34.320,47.681 34.406 M45.614 35.909 C 45.901 36.210,46.169 36.418,46.211 36.371 C 46.253 36.324,46.019 36.077,45.690 35.823 L 45.093 35.361 45.614 35.909 M52.657 37.405 C 52.657 37.529,55.623 38.491,55.970 38.480 C 56.319 38.468,55.163 38.005,54.165 37.757 C 53.679 37.636,53.140 37.483,52.969 37.417 C 52.797 37.351,52.657 37.346,52.657 37.405 M58.018 38.885 C 58.387 38.978,60.110 39.140,61.848 39.246 C 65.616 39.477,78.580 39.475,77.453 39.244 C 77.032 39.158,73.327 39.085,69.220 39.082 C 65.112 39.079,60.890 38.990,59.837 38.883 C 57.586 38.655,57.097 38.655,58.018 38.885 M80.997 39.883 C 81.123 40.022,83.712 40.622,83.802 40.532 C 83.839 40.494,83.547 40.369,83.151 40.254 C 82.205 39.978,80.874 39.749,80.997 39.883 M84.075 40.673 C 84.119 40.716,84.825 41.018,85.643 41.342 C 87.251 41.981,89.207 42.949,90.550 43.772 C 91.014 44.055,91.336 44.196,91.267 44.084 C 90.966 43.597,87.215 41.656,85.226 40.957 C 84.182 40.590,83.929 40.528,84.075 40.673 M91.527 44.290 C 91.527 44.334,92.152 44.849,92.915 45.435 C 94.258 46.464,96.794 48.968,98.291 50.742 C 98.692 51.216,98.955 51.474,98.878 51.316 C 98.598 50.744,96.285 48.073,95.256 47.133 C 93.851 45.849,91.527 44.077,91.527 44.290 M100.070 53.423 C 100.672 54.423,101.422 55.824,101.737 56.537 C 102.052 57.249,102.348 57.793,102.395 57.745 C 102.596 57.545,99.947 52.566,99.298 51.923 C 99.120 51.747,99.468 52.422,100.070 53.423 M83.325 55.864 L 82.606 56.582 83.285 56.008 C 83.658 55.693,84.045 55.369,84.146 55.290 C 84.246 55.211,84.264 55.146,84.186 55.146 C 84.108 55.146,83.721 55.469,83.325 55.864 M89.708 56.103 C 90.119 56.525,90.499 56.869,90.552 56.869 C 90.604 56.869,90.311 56.525,89.899 56.103 C 89.488 55.682,89.108 55.337,89.056 55.337 C 89.003 55.337,89.297 55.682,89.708 56.103 M81.942 57.760 C 81.836 58.039,81.777 58.352,81.811 58.455 C 81.846 58.558,81.970 58.329,82.087 57.947 C 82.333 57.144,82.228 57.008,81.942 57.760 M102.567 58.401 C 102.837 59.464,103.402 60.828,103.282 60.124 C 103.219 59.756,103.005 59.110,102.807 58.688 C 102.608 58.267,102.501 58.138,102.567 58.401 M91.199 59.454 C 91.200 59.981,91.237 60.174,91.281 59.882 C 91.326 59.591,91.324 59.161,91.279 58.925 C 91.233 58.690,91.197 58.928,91.199 59.454 M81.844 60.795 C 81.919 61.111,82.063 61.453,82.163 61.556 C 82.264 61.659,82.245 61.444,82.121 61.077 C 81.831 60.220,81.668 60.054,81.844 60.795 M90.727 61.282 C 90.551 61.699,90.441 62.039,90.483 62.039 C 90.624 62.039,91.168 60.867,91.108 60.695 C 91.075 60.601,90.904 60.866,90.727 61.282 M103.652 62.087 C 103.709 62.324,103.814 62.842,103.886 63.238 C 103.958 63.634,104.096 64.008,104.194 64.068 C 104.297 64.132,104.320 63.951,104.249 63.635 C 103.937 62.253,103.758 61.656,103.658 61.656 C 103.598 61.656,103.595 61.850,103.652 62.087 M83.355 63.045 C 83.769 63.439,84.203 63.763,84.318 63.763 C 84.433 63.763,84.314 63.620,84.054 63.446 C 83.794 63.272,83.360 62.949,83.091 62.728 C 82.821 62.507,82.940 62.650,83.355 63.045 M89.696 62.853 L 89.134 63.475 89.756 62.913 C 90.098 62.604,90.378 62.324,90.378 62.291 C 90.378 62.143,90.220 62.273,89.696 62.853 M106.654 63.328 C 105.711 63.439,105.541 63.692,106.469 63.603 C 106.888 63.563,107.278 63.454,107.337 63.359 C 107.395 63.265,107.416 63.202,107.383 63.219 C 107.351 63.236,107.022 63.285,106.654 63.328 M77.597 94.148 C 77.781 94.196,78.083 94.196,78.267 94.148 C 78.451 94.100,78.301 94.061,77.932 94.061 C 77.563 94.061,77.413 94.100,77.597 94.148 M76.065 94.340 C 76.249 94.388,76.551 94.388,76.735 94.340 C 76.920 94.292,76.769 94.252,76.400 94.252 C 76.032 94.252,75.881 94.292,76.065 94.340 " stroke="none" fill="#7cb4bc" fill-rule="evenodd"></path><path id="path7" d="" stroke="none" fill="#8ca838" fill-rule="evenodd"></path><path id="path8" d="" stroke="none" fill="#34b438" fill-rule="evenodd"></path></g></svg>